<mxfile host="app.diagrams.net" agent="Mozilla/5.0 (Windows NT 10.0; Win64; x64) AppleWebKit/537.36 (KHTML, like Gecko) Chrome/134.0.0.0 Safari/537.36" version="26.1.1">
  <diagram name="Page-1" id="VJQs33utHeRug4QohXfG">
    <mxGraphModel dx="2143" dy="1715" grid="1" gridSize="10" guides="1" tooltips="1" connect="1" arrows="1" fold="1" page="1" pageScale="1" pageWidth="850" pageHeight="1100" math="0" shadow="0">
      <root>
        <mxCell id="0" />
        <mxCell id="1" parent="0" />
        <mxCell id="TQWg_bVcVxOg6VGjR5r5-9" style="rounded=0;orthogonalLoop=1;jettySize=auto;html=1;entryX=0.5;entryY=1;entryDx=0;entryDy=0;endArrow=none;startFill=0;" parent="1" source="TQWg_bVcVxOg6VGjR5r5-1" target="TQWg_bVcVxOg6VGjR5r5-5" edge="1">
          <mxGeometry relative="1" as="geometry">
            <Array as="points">
              <mxPoint x="170" y="90" />
            </Array>
          </mxGeometry>
        </mxCell>
        <mxCell id="TQWg_bVcVxOg6VGjR5r5-10" style="rounded=0;orthogonalLoop=1;jettySize=auto;html=1;entryX=0.5;entryY=1;entryDx=0;entryDy=0;endArrow=none;startFill=0;" parent="1" source="TQWg_bVcVxOg6VGjR5r5-1" target="TQWg_bVcVxOg6VGjR5r5-7" edge="1">
          <mxGeometry relative="1" as="geometry">
            <Array as="points">
              <mxPoint x="170" y="100" />
            </Array>
          </mxGeometry>
        </mxCell>
        <mxCell id="TQWg_bVcVxOg6VGjR5r5-12" value="" style="edgeStyle=orthogonalEdgeStyle;rounded=0;orthogonalLoop=1;jettySize=auto;html=1;endArrow=none;startFill=0;" parent="1" source="TQWg_bVcVxOg6VGjR5r5-1" target="TQWg_bVcVxOg6VGjR5r5-11" edge="1">
          <mxGeometry relative="1" as="geometry" />
        </mxCell>
        <mxCell id="yCl1tanOx9TVhE_Y6jLE-66" value="M" style="edgeLabel;html=1;align=center;verticalAlign=middle;resizable=0;points=[];" vertex="1" connectable="0" parent="TQWg_bVcVxOg6VGjR5r5-12">
          <mxGeometry x="-0.2333" y="1" relative="1" as="geometry">
            <mxPoint x="-19" y="-9" as="offset" />
          </mxGeometry>
        </mxCell>
        <mxCell id="TQWg_bVcVxOg6VGjR5r5-1" value="Mahasiswa" style="rounded=0;whiteSpace=wrap;html=1;" parent="1" vertex="1">
          <mxGeometry x="110" y="90" width="120" height="60" as="geometry" />
        </mxCell>
        <mxCell id="TQWg_bVcVxOg6VGjR5r5-2" value="Dosen wali" style="rounded=0;whiteSpace=wrap;html=1;" parent="1" vertex="1">
          <mxGeometry x="490" y="90" width="120" height="60" as="geometry" />
        </mxCell>
        <mxCell id="TQWg_bVcVxOg6VGjR5r5-3" value="Mata kuliah&lt;span style=&quot;color: rgba(0, 0, 0, 0); font-family: monospace; font-size: 0px; text-align: start; text-wrap-mode: nowrap;&quot;&gt;%3CmxGraphModel%3E%3Croot%3E%3CmxCell%20id%3D%220%22%2F%3E%3CmxCell%20id%3D%221%22%20parent%3D%220%22%2F%3E%3CmxCell%20id%3D%222%22%20value%3D%22Mahasiswa%22%20style%3D%22rounded%3D0%3BwhiteSpace%3Dwrap%3Bhtml%3D1%3B%22%20vertex%3D%221%22%20parent%3D%221%22%3E%3CmxGeometry%20x%3D%22350%22%20y%3D%22230%22%20width%3D%22120%22%20height%3D%2260%22%20as%3D%22geometry%22%2F%3E%3C%2FmxCell%3E%3C%2Froot%3E%3C%2FmxGraphModel%3E&lt;/span&gt;" style="rounded=0;whiteSpace=wrap;html=1;" parent="1" vertex="1">
          <mxGeometry x="20" y="490" width="120" height="60" as="geometry" />
        </mxCell>
        <mxCell id="TQWg_bVcVxOg6VGjR5r5-4" value="Jadwal" style="rounded=0;whiteSpace=wrap;html=1;" parent="1" vertex="1">
          <mxGeometry x="20" y="750" width="120" height="60" as="geometry" />
        </mxCell>
        <mxCell id="TQWg_bVcVxOg6VGjR5r5-5" value="NRP" style="ellipse;whiteSpace=wrap;html=1;" parent="1" vertex="1">
          <mxGeometry x="140" y="-60" width="100" height="50" as="geometry" />
        </mxCell>
        <mxCell id="TQWg_bVcVxOg6VGjR5r5-7" value="Nama" style="ellipse;whiteSpace=wrap;html=1;" parent="1" vertex="1">
          <mxGeometry x="210" width="100" height="50" as="geometry" />
        </mxCell>
        <mxCell id="TQWg_bVcVxOg6VGjR5r5-13" value="" style="edgeStyle=orthogonalEdgeStyle;rounded=0;orthogonalLoop=1;jettySize=auto;html=1;endArrow=none;startFill=0;" parent="1" source="TQWg_bVcVxOg6VGjR5r5-11" target="TQWg_bVcVxOg6VGjR5r5-2" edge="1">
          <mxGeometry relative="1" as="geometry" />
        </mxCell>
        <mxCell id="yCl1tanOx9TVhE_Y6jLE-65" value="1" style="edgeLabel;html=1;align=center;verticalAlign=middle;resizable=0;points=[];" vertex="1" connectable="0" parent="TQWg_bVcVxOg6VGjR5r5-13">
          <mxGeometry x="-0.575" y="-1" relative="1" as="geometry">
            <mxPoint x="-2" y="-11" as="offset" />
          </mxGeometry>
        </mxCell>
        <mxCell id="TQWg_bVcVxOg6VGjR5r5-11" value="&lt;font style=&quot;font-size: 11px;&quot;&gt;Membimbing&lt;/font&gt;" style="rhombus;whiteSpace=wrap;html=1;rounded=0;" parent="1" vertex="1">
          <mxGeometry x="330" y="80" width="80" height="80" as="geometry" />
        </mxCell>
        <mxCell id="yCl1tanOx9TVhE_Y6jLE-1" value="Email" style="ellipse;whiteSpace=wrap;html=1;" vertex="1" parent="1">
          <mxGeometry x="60" y="-10" width="100" height="50" as="geometry" />
        </mxCell>
        <mxCell id="yCl1tanOx9TVhE_Y6jLE-3" style="rounded=0;orthogonalLoop=1;jettySize=auto;html=1;entryX=0.5;entryY=1;entryDx=0;entryDy=0;endArrow=none;startFill=0;exitX=0.5;exitY=0;exitDx=0;exitDy=0;" edge="1" parent="1" source="TQWg_bVcVxOg6VGjR5r5-1" target="yCl1tanOx9TVhE_Y6jLE-1">
          <mxGeometry relative="1" as="geometry">
            <Array as="points" />
            <mxPoint x="109.47000000000003" y="90" as="sourcePoint" />
            <mxPoint x="109.47000000000003" as="targetPoint" />
          </mxGeometry>
        </mxCell>
        <mxCell id="yCl1tanOx9TVhE_Y6jLE-24" value="" style="rounded=0;orthogonalLoop=1;jettySize=auto;html=1;entryX=0.5;entryY=1;entryDx=0;entryDy=0;endArrow=none;startFill=0;exitX=0.5;exitY=0;exitDx=0;exitDy=0;" edge="1" parent="1" source="TQWg_bVcVxOg6VGjR5r5-2" target="yCl1tanOx9TVhE_Y6jLE-21">
          <mxGeometry relative="1" as="geometry">
            <Array as="points" />
            <mxPoint x="550" y="90" as="sourcePoint" />
            <mxPoint x="650" y="20" as="targetPoint" />
          </mxGeometry>
        </mxCell>
        <mxCell id="yCl1tanOx9TVhE_Y6jLE-21" value="Nama" style="ellipse;whiteSpace=wrap;html=1;" vertex="1" parent="1">
          <mxGeometry x="580" y="-10" width="100" height="50" as="geometry" />
        </mxCell>
        <mxCell id="yCl1tanOx9TVhE_Y6jLE-25" value="Email" style="ellipse;whiteSpace=wrap;html=1;" vertex="1" parent="1">
          <mxGeometry x="500" y="-60" width="100" height="50" as="geometry" />
        </mxCell>
        <mxCell id="yCl1tanOx9TVhE_Y6jLE-26" value="" style="rounded=0;orthogonalLoop=1;jettySize=auto;html=1;entryX=0.5;entryY=1;entryDx=0;entryDy=0;endArrow=none;startFill=0;exitX=0.5;exitY=0;exitDx=0;exitDy=0;" edge="1" parent="1" source="TQWg_bVcVxOg6VGjR5r5-2" target="yCl1tanOx9TVhE_Y6jLE-25">
          <mxGeometry relative="1" as="geometry">
            <Array as="points" />
            <mxPoint x="440" y="90" as="sourcePoint" />
            <mxPoint x="520" y="40" as="targetPoint" />
          </mxGeometry>
        </mxCell>
        <mxCell id="yCl1tanOx9TVhE_Y6jLE-27" value="ID_Dosen" style="ellipse;whiteSpace=wrap;html=1;" vertex="1" parent="1">
          <mxGeometry x="430" width="100" height="50" as="geometry" />
        </mxCell>
        <mxCell id="yCl1tanOx9TVhE_Y6jLE-28" value="" style="rounded=0;orthogonalLoop=1;jettySize=auto;html=1;entryX=0.5;entryY=1;entryDx=0;entryDy=0;endArrow=none;startFill=0;exitX=0.5;exitY=0;exitDx=0;exitDy=0;" edge="1" parent="1" source="TQWg_bVcVxOg6VGjR5r5-2" target="yCl1tanOx9TVhE_Y6jLE-27">
          <mxGeometry relative="1" as="geometry">
            <Array as="points" />
            <mxPoint x="490" y="80" as="sourcePoint" />
            <mxPoint x="460" y="30" as="targetPoint" />
          </mxGeometry>
        </mxCell>
        <mxCell id="yCl1tanOx9TVhE_Y6jLE-29" value="FRS" style="rounded=0;whiteSpace=wrap;html=1;" vertex="1" parent="1">
          <mxGeometry x="20" y="370" width="120" height="60" as="geometry" />
        </mxCell>
        <mxCell id="yCl1tanOx9TVhE_Y6jLE-30" value="Pembayaran" style="rounded=0;whiteSpace=wrap;html=1;" vertex="1" parent="1">
          <mxGeometry x="190" y="370" width="120" height="60" as="geometry" />
        </mxCell>
        <mxCell id="yCl1tanOx9TVhE_Y6jLE-32" value="&lt;font style=&quot;font-size: 11px;&quot;&gt;Melakukan&lt;/font&gt;" style="rhombus;whiteSpace=wrap;html=1;rounded=0;" vertex="1" parent="1">
          <mxGeometry x="210" y="230" width="80" height="80" as="geometry" />
        </mxCell>
        <mxCell id="yCl1tanOx9TVhE_Y6jLE-33" value="&lt;font style=&quot;font-size: 11px;&quot;&gt;Mengisi&lt;/font&gt;" style="rhombus;whiteSpace=wrap;html=1;rounded=0;" vertex="1" parent="1">
          <mxGeometry x="40" y="230" width="80" height="80" as="geometry" />
        </mxCell>
        <mxCell id="yCl1tanOx9TVhE_Y6jLE-35" value="" style="rounded=0;orthogonalLoop=1;jettySize=auto;html=1;entryX=0.5;entryY=1;entryDx=0;entryDy=0;endArrow=none;startFill=0;exitX=0.5;exitY=0;exitDx=0;exitDy=0;" edge="1" parent="1" source="yCl1tanOx9TVhE_Y6jLE-33" target="TQWg_bVcVxOg6VGjR5r5-1">
          <mxGeometry relative="1" as="geometry">
            <Array as="points" />
            <mxPoint x="210" y="220" as="sourcePoint" />
            <mxPoint x="140" y="180" as="targetPoint" />
          </mxGeometry>
        </mxCell>
        <mxCell id="yCl1tanOx9TVhE_Y6jLE-36" value="" style="rounded=0;orthogonalLoop=1;jettySize=auto;html=1;entryX=0.5;entryY=1;entryDx=0;entryDy=0;endArrow=none;startFill=0;exitX=0.5;exitY=0;exitDx=0;exitDy=0;" edge="1" parent="1" source="yCl1tanOx9TVhE_Y6jLE-32" target="TQWg_bVcVxOg6VGjR5r5-1">
          <mxGeometry relative="1" as="geometry">
            <Array as="points" />
            <mxPoint x="250" y="210" as="sourcePoint" />
            <mxPoint x="180" y="170" as="targetPoint" />
          </mxGeometry>
        </mxCell>
        <mxCell id="yCl1tanOx9TVhE_Y6jLE-37" value="" style="rounded=0;orthogonalLoop=1;jettySize=auto;html=1;entryX=0.5;entryY=1;entryDx=0;entryDy=0;endArrow=none;startFill=0;exitX=0.5;exitY=0;exitDx=0;exitDy=0;" edge="1" parent="1" source="yCl1tanOx9TVhE_Y6jLE-29" target="yCl1tanOx9TVhE_Y6jLE-33">
          <mxGeometry relative="1" as="geometry">
            <Array as="points" />
            <mxPoint x="205" y="360" as="sourcePoint" />
            <mxPoint x="135" y="320" as="targetPoint" />
          </mxGeometry>
        </mxCell>
        <mxCell id="yCl1tanOx9TVhE_Y6jLE-70" value="M" style="edgeLabel;html=1;align=center;verticalAlign=middle;resizable=0;points=[];" vertex="1" connectable="0" parent="yCl1tanOx9TVhE_Y6jLE-37">
          <mxGeometry x="0.2037" y="4" relative="1" as="geometry">
            <mxPoint x="-6" y="-14" as="offset" />
          </mxGeometry>
        </mxCell>
        <mxCell id="yCl1tanOx9TVhE_Y6jLE-38" value="" style="rounded=0;orthogonalLoop=1;jettySize=auto;html=1;entryX=0.5;entryY=1;entryDx=0;entryDy=0;endArrow=none;startFill=0;exitX=0.5;exitY=0;exitDx=0;exitDy=0;" edge="1" parent="1" source="yCl1tanOx9TVhE_Y6jLE-30" target="yCl1tanOx9TVhE_Y6jLE-32">
          <mxGeometry relative="1" as="geometry">
            <Array as="points" />
            <mxPoint x="250" y="360" as="sourcePoint" />
            <mxPoint x="250" y="300" as="targetPoint" />
          </mxGeometry>
        </mxCell>
        <mxCell id="yCl1tanOx9TVhE_Y6jLE-39" value="status" style="ellipse;whiteSpace=wrap;html=1;" vertex="1" parent="1">
          <mxGeometry x="270" y="510" width="100" height="50" as="geometry" />
        </mxCell>
        <mxCell id="yCl1tanOx9TVhE_Y6jLE-40" value="" style="rounded=0;orthogonalLoop=1;jettySize=auto;html=1;entryX=0.5;entryY=1;entryDx=0;entryDy=0;endArrow=none;startFill=0;exitX=0.5;exitY=0;exitDx=0;exitDy=0;" edge="1" parent="1" source="yCl1tanOx9TVhE_Y6jLE-39" target="yCl1tanOx9TVhE_Y6jLE-30">
          <mxGeometry relative="1" as="geometry">
            <Array as="points" />
            <mxPoint x="200" y="530" as="sourcePoint" />
            <mxPoint x="280" y="480" as="targetPoint" />
          </mxGeometry>
        </mxCell>
        <mxCell id="yCl1tanOx9TVhE_Y6jLE-41" value="" style="rounded=0;orthogonalLoop=1;jettySize=auto;html=1;entryX=0.5;entryY=1;entryDx=0;entryDy=0;endArrow=none;startFill=0;exitX=0.5;exitY=0;exitDx=0;exitDy=0;" edge="1" parent="1" source="yCl1tanOx9TVhE_Y6jLE-42" target="yCl1tanOx9TVhE_Y6jLE-30">
          <mxGeometry relative="1" as="geometry">
            <Array as="points" />
            <mxPoint x="180" y="520" as="sourcePoint" />
            <mxPoint x="260" y="470" as="targetPoint" />
          </mxGeometry>
        </mxCell>
        <mxCell id="yCl1tanOx9TVhE_Y6jLE-42" value="&lt;font style=&quot;font-size: 10px;&quot;&gt;No_pembayaran&lt;/font&gt;" style="ellipse;whiteSpace=wrap;html=1;" vertex="1" parent="1">
          <mxGeometry x="150" y="490" width="100" height="50" as="geometry" />
        </mxCell>
        <mxCell id="yCl1tanOx9TVhE_Y6jLE-43" value="NRP" style="ellipse;whiteSpace=wrap;html=1;" vertex="1" parent="1">
          <mxGeometry x="200" y="550" width="100" height="50" as="geometry" />
        </mxCell>
        <mxCell id="yCl1tanOx9TVhE_Y6jLE-44" value="" style="rounded=0;orthogonalLoop=1;jettySize=auto;html=1;entryX=0.5;entryY=1;entryDx=0;entryDy=0;endArrow=none;startFill=0;exitX=0.5;exitY=0;exitDx=0;exitDy=0;" edge="1" parent="1" source="yCl1tanOx9TVhE_Y6jLE-43" target="yCl1tanOx9TVhE_Y6jLE-30">
          <mxGeometry relative="1" as="geometry">
            <Array as="points" />
            <mxPoint x="310" y="510" as="sourcePoint" />
            <mxPoint x="240" y="450" as="targetPoint" />
          </mxGeometry>
        </mxCell>
        <mxCell id="yCl1tanOx9TVhE_Y6jLE-45" value="&lt;font style=&quot;font-size: 11px;&quot;&gt;Memiliki&lt;/font&gt;" style="rhombus;whiteSpace=wrap;html=1;rounded=0;" vertex="1" parent="1">
          <mxGeometry x="40" y="610" width="80" height="80" as="geometry" />
        </mxCell>
        <mxCell id="yCl1tanOx9TVhE_Y6jLE-46" value="NRP" style="ellipse;whiteSpace=wrap;html=1;" vertex="1" parent="1">
          <mxGeometry x="-140" y="370" width="100" height="50" as="geometry" />
        </mxCell>
        <mxCell id="yCl1tanOx9TVhE_Y6jLE-47" value="ID_FRS" style="ellipse;whiteSpace=wrap;html=1;" vertex="1" parent="1">
          <mxGeometry x="-150" y="300" width="100" height="50" as="geometry" />
        </mxCell>
        <mxCell id="yCl1tanOx9TVhE_Y6jLE-50" value="" style="rounded=0;orthogonalLoop=1;jettySize=auto;html=1;endArrow=none;startFill=0;exitX=1;exitY=0.5;exitDx=0;exitDy=0;entryX=0;entryY=0.5;entryDx=0;entryDy=0;" edge="1" parent="1" source="yCl1tanOx9TVhE_Y6jLE-46" target="yCl1tanOx9TVhE_Y6jLE-29">
          <mxGeometry relative="1" as="geometry">
            <Array as="points" />
            <mxPoint x="140" y="500" as="sourcePoint" />
            <mxPoint x="30" y="440" as="targetPoint" />
          </mxGeometry>
        </mxCell>
        <mxCell id="yCl1tanOx9TVhE_Y6jLE-51" value="" style="rounded=0;orthogonalLoop=1;jettySize=auto;html=1;entryX=0;entryY=0.25;entryDx=0;entryDy=0;endArrow=none;startFill=0;exitX=1;exitY=0.5;exitDx=0;exitDy=0;" edge="1" parent="1" source="yCl1tanOx9TVhE_Y6jLE-47" target="yCl1tanOx9TVhE_Y6jLE-29">
          <mxGeometry relative="1" as="geometry">
            <Array as="points" />
            <mxPoint x="-50" y="330" as="sourcePoint" />
            <mxPoint x="-30.77000000000001" y="430" as="targetPoint" />
          </mxGeometry>
        </mxCell>
        <mxCell id="yCl1tanOx9TVhE_Y6jLE-52" value="" style="rounded=0;orthogonalLoop=1;jettySize=auto;html=1;entryX=0.5;entryY=1;entryDx=0;entryDy=0;endArrow=none;startFill=0;exitX=0.5;exitY=0;exitDx=0;exitDy=0;" edge="1" parent="1" source="TQWg_bVcVxOg6VGjR5r5-3" target="yCl1tanOx9TVhE_Y6jLE-29">
          <mxGeometry relative="1" as="geometry">
            <Array as="points" />
            <mxPoint x="70" y="500" as="sourcePoint" />
            <mxPoint x="70" y="440" as="targetPoint" />
          </mxGeometry>
        </mxCell>
        <mxCell id="yCl1tanOx9TVhE_Y6jLE-53" value="" style="rounded=0;orthogonalLoop=1;jettySize=auto;html=1;endArrow=none;startFill=0;exitX=0.5;exitY=0;exitDx=0;exitDy=0;entryX=0.5;entryY=1;entryDx=0;entryDy=0;" edge="1" parent="1" source="yCl1tanOx9TVhE_Y6jLE-45" target="TQWg_bVcVxOg6VGjR5r5-3">
          <mxGeometry relative="1" as="geometry">
            <Array as="points" />
            <mxPoint x="10" y="610" as="sourcePoint" />
            <mxPoint x="70" y="570" as="targetPoint" />
          </mxGeometry>
        </mxCell>
        <mxCell id="yCl1tanOx9TVhE_Y6jLE-81" value="1" style="edgeLabel;html=1;align=center;verticalAlign=middle;resizable=0;points=[];" vertex="1" connectable="0" parent="yCl1tanOx9TVhE_Y6jLE-53">
          <mxGeometry x="-0.0778" y="4" relative="1" as="geometry">
            <mxPoint x="14" y="-12" as="offset" />
          </mxGeometry>
        </mxCell>
        <mxCell id="yCl1tanOx9TVhE_Y6jLE-54" value="" style="rounded=0;orthogonalLoop=1;jettySize=auto;html=1;entryX=0.5;entryY=1;entryDx=0;entryDy=0;endArrow=none;startFill=0;exitX=0.5;exitY=0;exitDx=0;exitDy=0;" edge="1" parent="1" source="TQWg_bVcVxOg6VGjR5r5-4" target="yCl1tanOx9TVhE_Y6jLE-45">
          <mxGeometry relative="1" as="geometry">
            <Array as="points" />
            <mxPoint x="79.22999999999999" y="750" as="sourcePoint" />
            <mxPoint x="79.22999999999999" y="690" as="targetPoint" />
          </mxGeometry>
        </mxCell>
        <mxCell id="yCl1tanOx9TVhE_Y6jLE-82" value="M" style="edgeLabel;html=1;align=center;verticalAlign=middle;resizable=0;points=[];" vertex="1" connectable="0" parent="yCl1tanOx9TVhE_Y6jLE-54">
          <mxGeometry x="0.4556" y="-1" relative="1" as="geometry">
            <mxPoint x="9" as="offset" />
          </mxGeometry>
        </mxCell>
        <mxCell id="yCl1tanOx9TVhE_Y6jLE-55" value="ID_Jadwal" style="ellipse;whiteSpace=wrap;html=1;" vertex="1" parent="1">
          <mxGeometry x="-70" y="850" width="100" height="50" as="geometry" />
        </mxCell>
        <mxCell id="yCl1tanOx9TVhE_Y6jLE-56" value="Hari" style="ellipse;whiteSpace=wrap;html=1;" vertex="1" parent="1">
          <mxGeometry x="-20" y="910" width="100" height="50" as="geometry" />
        </mxCell>
        <mxCell id="yCl1tanOx9TVhE_Y6jLE-57" value="Waktu" style="ellipse;whiteSpace=wrap;html=1;" vertex="1" parent="1">
          <mxGeometry x="80" y="930" width="100" height="50" as="geometry" />
        </mxCell>
        <mxCell id="yCl1tanOx9TVhE_Y6jLE-58" value="Ruang" style="ellipse;whiteSpace=wrap;html=1;" vertex="1" parent="1">
          <mxGeometry x="140" y="870" width="100" height="50" as="geometry" />
        </mxCell>
        <mxCell id="yCl1tanOx9TVhE_Y6jLE-59" value="" style="rounded=0;orthogonalLoop=1;jettySize=auto;html=1;entryX=0.5;entryY=1;entryDx=0;entryDy=0;endArrow=none;startFill=0;exitX=0.5;exitY=0;exitDx=0;exitDy=0;" edge="1" parent="1" source="yCl1tanOx9TVhE_Y6jLE-58" target="TQWg_bVcVxOg6VGjR5r5-4">
          <mxGeometry relative="1" as="geometry">
            <Array as="points" />
            <mxPoint x="170" y="880" as="sourcePoint" />
            <mxPoint x="170" y="820" as="targetPoint" />
          </mxGeometry>
        </mxCell>
        <mxCell id="yCl1tanOx9TVhE_Y6jLE-60" value="" style="rounded=0;orthogonalLoop=1;jettySize=auto;html=1;entryX=0.5;entryY=1;entryDx=0;entryDy=0;endArrow=none;startFill=0;exitX=0.5;exitY=0;exitDx=0;exitDy=0;" edge="1" parent="1" source="yCl1tanOx9TVhE_Y6jLE-56" target="TQWg_bVcVxOg6VGjR5r5-4">
          <mxGeometry relative="1" as="geometry">
            <Array as="points" />
            <mxPoint x="210" y="790" as="sourcePoint" />
            <mxPoint x="210" y="730" as="targetPoint" />
          </mxGeometry>
        </mxCell>
        <mxCell id="yCl1tanOx9TVhE_Y6jLE-61" value="" style="rounded=0;orthogonalLoop=1;jettySize=auto;html=1;entryX=0.5;entryY=1;entryDx=0;entryDy=0;endArrow=none;startFill=0;exitX=0.5;exitY=0;exitDx=0;exitDy=0;" edge="1" parent="1" source="yCl1tanOx9TVhE_Y6jLE-57" target="TQWg_bVcVxOg6VGjR5r5-4">
          <mxGeometry relative="1" as="geometry">
            <Array as="points" />
            <mxPoint x="90" y="900" as="sourcePoint" />
            <mxPoint x="90" y="840" as="targetPoint" />
          </mxGeometry>
        </mxCell>
        <mxCell id="yCl1tanOx9TVhE_Y6jLE-62" value="" style="rounded=0;orthogonalLoop=1;jettySize=auto;html=1;entryX=0.5;entryY=1;entryDx=0;entryDy=0;endArrow=none;startFill=0;exitX=0.5;exitY=0;exitDx=0;exitDy=0;" edge="1" parent="1" source="yCl1tanOx9TVhE_Y6jLE-55" target="TQWg_bVcVxOg6VGjR5r5-4">
          <mxGeometry relative="1" as="geometry">
            <Array as="points" />
            <mxPoint x="90" y="900" as="sourcePoint" />
            <mxPoint x="90" y="840" as="targetPoint" />
          </mxGeometry>
        </mxCell>
        <mxCell id="yCl1tanOx9TVhE_Y6jLE-68" value="1" style="edgeLabel;html=1;align=center;verticalAlign=middle;resizable=0;points=[];" vertex="1" connectable="0" parent="1">
          <mxGeometry x="199.9971093335228" y="170.0044373526925" as="geometry" />
        </mxCell>
        <mxCell id="yCl1tanOx9TVhE_Y6jLE-69" value="1" style="edgeLabel;html=1;align=center;verticalAlign=middle;resizable=0;points=[];" vertex="1" connectable="0" parent="1">
          <mxGeometry x="259.9971093335228" y="320.0044373526925" as="geometry" />
        </mxCell>
        <mxCell id="yCl1tanOx9TVhE_Y6jLE-71" style="edgeStyle=orthogonalEdgeStyle;rounded=0;orthogonalLoop=1;jettySize=auto;html=1;exitX=0.5;exitY=1;exitDx=0;exitDy=0;" edge="1" parent="1" source="yCl1tanOx9TVhE_Y6jLE-46" target="yCl1tanOx9TVhE_Y6jLE-46">
          <mxGeometry relative="1" as="geometry" />
        </mxCell>
        <mxCell id="yCl1tanOx9TVhE_Y6jLE-73" value="ID_Matkul" style="ellipse;whiteSpace=wrap;html=1;" vertex="1" parent="1">
          <mxGeometry x="-100" y="610" width="100" height="50" as="geometry" />
        </mxCell>
        <mxCell id="yCl1tanOx9TVhE_Y6jLE-74" value="Nama_Matkul" style="ellipse;whiteSpace=wrap;html=1;" vertex="1" parent="1">
          <mxGeometry x="-180" y="510" width="100" height="50" as="geometry" />
        </mxCell>
        <mxCell id="yCl1tanOx9TVhE_Y6jLE-75" value="SKS" style="ellipse;whiteSpace=wrap;html=1;" vertex="1" parent="1">
          <mxGeometry x="-110" y="470" width="100" height="50" as="geometry" />
        </mxCell>
        <mxCell id="yCl1tanOx9TVhE_Y6jLE-76" value="Kuota" style="ellipse;whiteSpace=wrap;html=1;" vertex="1" parent="1">
          <mxGeometry x="-140" y="560" width="100" height="50" as="geometry" />
        </mxCell>
        <mxCell id="yCl1tanOx9TVhE_Y6jLE-77" value="" style="rounded=0;orthogonalLoop=1;jettySize=auto;html=1;endArrow=none;startFill=0;exitX=1;exitY=0.5;exitDx=0;exitDy=0;entryX=0;entryY=0.5;entryDx=0;entryDy=0;" edge="1" parent="1" source="yCl1tanOx9TVhE_Y6jLE-75" target="TQWg_bVcVxOg6VGjR5r5-3">
          <mxGeometry relative="1" as="geometry">
            <Array as="points" />
            <mxPoint x="-70" y="512.5" as="sourcePoint" />
            <mxPoint x="-10" y="517.5" as="targetPoint" />
          </mxGeometry>
        </mxCell>
        <mxCell id="yCl1tanOx9TVhE_Y6jLE-78" value="" style="rounded=0;orthogonalLoop=1;jettySize=auto;html=1;endArrow=none;startFill=0;exitX=1;exitY=0.5;exitDx=0;exitDy=0;entryX=0;entryY=0.5;entryDx=0;entryDy=0;" edge="1" parent="1" source="yCl1tanOx9TVhE_Y6jLE-74" target="TQWg_bVcVxOg6VGjR5r5-3">
          <mxGeometry relative="1" as="geometry">
            <Array as="points" />
            <mxPoint x="-50" y="565" as="sourcePoint" />
            <mxPoint x="10" y="570" as="targetPoint" />
          </mxGeometry>
        </mxCell>
        <mxCell id="yCl1tanOx9TVhE_Y6jLE-79" value="" style="rounded=0;orthogonalLoop=1;jettySize=auto;html=1;endArrow=none;startFill=0;exitX=1;exitY=0;exitDx=0;exitDy=0;entryX=0;entryY=0.5;entryDx=0;entryDy=0;" edge="1" parent="1" source="yCl1tanOx9TVhE_Y6jLE-76" target="TQWg_bVcVxOg6VGjR5r5-3">
          <mxGeometry relative="1" as="geometry">
            <Array as="points" />
            <mxPoint x="-50" y="560" as="sourcePoint" />
            <mxPoint x="10" y="565" as="targetPoint" />
          </mxGeometry>
        </mxCell>
        <mxCell id="yCl1tanOx9TVhE_Y6jLE-80" value="" style="rounded=0;orthogonalLoop=1;jettySize=auto;html=1;endArrow=none;startFill=0;exitX=0.71;exitY=0.024;exitDx=0;exitDy=0;entryX=0;entryY=0.5;entryDx=0;entryDy=0;exitPerimeter=0;" edge="1" parent="1" source="yCl1tanOx9TVhE_Y6jLE-73" target="TQWg_bVcVxOg6VGjR5r5-3">
          <mxGeometry relative="1" as="geometry">
            <Array as="points" />
            <mxPoint y="590" as="sourcePoint" />
            <mxPoint x="60" y="595" as="targetPoint" />
          </mxGeometry>
        </mxCell>
        <mxCell id="yCl1tanOx9TVhE_Y6jLE-83" value="tanggal" style="ellipse;whiteSpace=wrap;html=1;" vertex="1" parent="1">
          <mxGeometry x="320" y="460" width="100" height="50" as="geometry" />
        </mxCell>
        <mxCell id="yCl1tanOx9TVhE_Y6jLE-84" value="" style="rounded=0;orthogonalLoop=1;jettySize=auto;html=1;entryX=0.5;entryY=1;entryDx=0;entryDy=0;endArrow=none;startFill=0;exitX=0.5;exitY=0;exitDx=0;exitDy=0;" edge="1" parent="1" source="yCl1tanOx9TVhE_Y6jLE-83" target="yCl1tanOx9TVhE_Y6jLE-30">
          <mxGeometry relative="1" as="geometry">
            <Array as="points" />
            <mxPoint x="405" y="460" as="sourcePoint" />
            <mxPoint x="335" y="380" as="targetPoint" />
          </mxGeometry>
        </mxCell>
      </root>
    </mxGraphModel>
  </diagram>
</mxfile>
